<svg xmlns="http://www.w3.org/2000/svg" version="1.1" xmlns:xlink="http://www.w3.org/1999/xlink" xmlns:svgjs="http://svgjs.dev/svgjs" viewBox="0 0 600 600" opacity="1"><path d="M140.9685821533203,257.59161376953125C137.8272221883138,229.71203104654947,142.27749379475912,198.16753387451172,169.2408447265625,177.48690795898438C196.20419565836588,156.80628204345703,259.1623026529948,128.27225494384766,302.7486877441406,133.5078582763672C346.33507283528644,138.74346160888672,402.35601298014325,181.15183766682944,430.7591552734375,208.90052795410156C459.16229756673175,236.6492182413737,476.5706837972005,255.49738311767578,473.16754150390625,300C469.764399210612,344.5026168823242,442.9319254557292,448.2984263102214,410.3403015136719,475.9162292480469C377.74867757161456,503.5340321858724,317.14659118652344,462.434565226237,277.6177978515625,465.7068176269531C238.08900451660156,468.97907002766925,188.08900705973306,515.7068125406901,173.16754150390625,495.54974365234375C158.24607594807944,475.3926747639974,193.45549774169922,384.42409261067706,188.08900451660156,344.764404296875C182.7225112915039,305.10471598307294,144.1099421183268,285.471196492513,140.9685821533203,257.59161376953125C137.8272221883138,229.71203104654947,142.27749379475912,198.16753387451172,169.2408447265625,177.48690795898438" fill="hsl(340, 45%, 50%)" transform="matrix(1.1025,0,0,1.1025,-38.295066146850615,-49.19312118530274)"></path></svg>