<svg xmlns="http://www.w3.org/2000/svg" version="1.1" xmlns:xlink="http://www.w3.org/1999/xlink" viewBox="0 0 700 700" style="overflow: hidden; display: block;" width="700" height="700"><defs></defs><g id="two-0" transform="matrix(1 0 0 1 0 0)" opacity="1"><path transform="matrix(1 0 0 1 350 350)" id="two-300" d="M 260.449468 94.795853 C 244.029218 124.777076 246.055206 163.323595 231.504603 194.255427 C 215.372489 228.549253 195.752115 264.573171 167.019917 289.286983 C 137.34949 314.807806 98.755251 334.788416 60.031401 340.454993 C 21.416779 346.105587 -21.190358 338.103228 -56.801916 322.139671 C -90.948253 306.832927 -118.622324 277.271995 -144.449478 250.193834 C -166.992677 226.558694 -180.839346 194.271574 -203.561141 170.808078 C -228.028283 145.542262 -273.085185 136.763705 -286.956848 104.44375 C -300.603166 72.648831 -274.843408 34.476237 -277.763685 0 C -280.982646 -38.002443 -315.211456 -74.511809 -307.117117 -111.781489 C -299.287482 -147.832362 -259.177834 -169.34522 -236.430817 -198.389011 C -213.082158 -228.200989 -199.035701 -269.158216 -167.508309 -290.132902 C -135.942376 -311.133228 -93.194165 -326.235369 -56.122931 -318.288957 C -15.581163 -309.598617 5.146448 -258.544246 42.366778 -240.273944 C 68.094715 -227.6449 99.24946 -227.736306 126.670797 -219.400257 C 158.28884 -209.788415 199.078808 -210.1777 220.825908 -185.294939 C 242.435819 -160.569149 225.146768 -116.291234 241.884419 -88.038729 C 264.487699 -49.885271 340.365676 -44.24153 343.41226 -0.000001 C 346.268176 41.472719 280.418431 58.335146 260.449468 94.795853 Z " fill="#e92027" stroke="undefined" stroke-width="1" stroke-opacity="1" fill-opacity="1" visibility="visible" stroke-linecap="butt" stroke-linejoin="miter" stroke-miterlimit="4"></path></g></svg>