<svg xmlns="http://www.w3.org/2000/svg" version="1.1" xmlns:xlink="http://www.w3.org/1999/xlink" xmlns:svgjs="http://svgjs.dev/svgjs" viewBox="0 0 600 600" opacity="1"><path d="M137.8272247314453,290.575927734375C143.71727752685547,245.6806386311849,145.8115208943685,191.62303924560547,174.73822021484375,175.13088989257812C203.664919535319,158.63874053955078,269.6334940592448,193.32460276285806,311.3874206542969,191.62303161621094C353.14134724934894,189.9214604695638,394.89528401692706,148.42931365966797,425.26177978515625,164.9214630126953C455.62827555338544,181.41361236572266,494.1099548339844,254.8429438273112,493.5863952636719,290.575927734375C493.0628356933594,326.3089116414388,424.73822530110675,345.0261739095052,422.12042236328125,379.3193664550781C419.50261942545575,413.61255900065106,478.5340270996094,466.0994822184245,477.87957763671875,496.3350830078125C477.2251281738281,526.5706837972006,449.21466573079425,556.28271484375,418.1937255859375,560.7329711914062C387.17278544108075,565.1832275390625,330.8900629679362,522.9057312011719,291.7539367675781,523.03662109375C252.61781056722006,523.1675109863281,208.76964060465494,574.6073099772135,183.37696838378906,561.518310546875C157.9842961629232,548.4293111165365,146.9895273844401,489.65968831380206,139.3979034423828,444.50262451171875C131.80627950032553,399.34556070963544,131.93717193603516,335.4712168375651,137.8272247314453,290.575927734375C143.71727752685547,245.6806386311849,145.8115208943685,191.62303924560547,174.73822021484375,175.13088989257812" fill="hsl(340, 45%, 50%)" transform="matrix(1.1025,0,0,1.1025,-45.70770309448244,-99.49374160766604)"></path></svg>