<svg xmlns="http://www.w3.org/2000/svg" version="1.1" xmlns:xlink="http://www.w3.org/1999/xlink" xmlns:svgjs="http://svgjs.dev/svgjs" viewBox="0 0 600 600" opacity="1"><path d="M308.2460632324219,175.91622924804688C272.51307678222656,173.429318745931,199.34554290771484,142.14659627278647,178.6649169921875,164.13612365722656C157.98429107666016,186.12565104166666,187.3036677042643,258.7696253458659,184.1623077392578,307.8533935546875C181.0209477742513,356.9371617635091,143.45550282796225,431.1518198649089,159.81675720214844,458.63873291015625C176.17801157633463,486.1256459554036,239.26700592041016,473.952880859375,282.329833984375,472.7748718261719C325.39266204833984,471.59686279296875,390.83770243326825,480.235600789388,418.1937255859375,451.5706787109375C445.54974873860675,422.905756632487,450.6544545491536,346.2041880289714,446.4659729003906,300.78533935546875C442.2774912516276,255.36649068196616,416.0994873046875,199.86910502115884,393.0628356933594,179.05758666992188C370.02618408203125,158.2460683186849,343.9790496826172,178.40313975016275,308.2460632324219,175.91622924804688C272.51307678222656,173.429318745931,199.34554290771484,142.14659627278647,178.6649169921875,164.13612365722656" fill="hsl(340, 45%, 50%)" transform="matrix(1.3367454015234377,0,0,1.3367454015234377,-103.34136515796683,-122.95551757100031)" stroke-width="0" stroke="hsl(340, 45%, 30%)"></path></svg>