<svg xmlns="http://www.w3.org/2000/svg" version="1.1" xmlns:xlink="http://www.w3.org/1999/xlink" viewBox="0 0 700 700" style="overflow: hidden; display: block;" width="700" height="700"><defs></defs><g id="two-0" transform="matrix(1 0 0 1 0 0)" opacity="1"><path transform="matrix(1 0 0 1 350 350)" id="two-298" d="M 281.437515 102.434878 C 282.480066 141.654313 290.150397 192.551691 261.821313 219.694167 C 231.571678 248.676748 172.291953 214.635398 135.831331 235.266767 C 99.944342 255.573544 95.20299 314.242648 58.836311 333.677305 C 24.03307 352.276448 -25.477172 360.956337 -60.409896 342.601539 C -100.432552 321.572324 -90.251931 246.742361 -129.495107 224.292103 C -169.109834 201.629286 -237.579141 258.910955 -267.794868 224.706574 C -297.180142 191.44227 -249.32521 135.645042 -250.803149 91.28488 C -251.825261 60.606321 -262.498935 30.068909 -268.669784 0 C -275.867687 -35.073468 -301.383622 -71.680372 -291.451325 -106.079607 C -281.712629 -139.808329 -238.95745 -154.696781 -217.109868 -182.17681 C -194.69558 -210.369645 -187.453927 -253.01421 -158.241855 -274.082932 C -129.190874 -295.03547 -88.567498 -305.313933 -53.036461 -300.784717 C -16.92011 -296.180889 10.949853 -263.644862 43.6733 -247.683593 C 69.365597 -235.151855 96.175131 -222.61788 123.272271 -213.513838 C 155.914235 -202.546858 193.082719 -202.389513 224.560895 -188.428965 C 261.98165 -171.832889 318.260835 -159.07883 327.492469 -119.197511 C 337.736362 -74.943162 265.545695 -44.897834 258.648646 -0.000001 C 253.390593 34.22843 280.517289 67.817169 281.437515 102.434878 Z " fill="#e92027" stroke="undefined" stroke-width="1" stroke-opacity="1" fill-opacity="1" visibility="visible" stroke-linecap="butt" stroke-linejoin="miter" stroke-miterlimit="4"></path></g></svg>