<svg xmlns="http://www.w3.org/2000/svg" version="1.1" xmlns:xlink="http://www.w3.org/1999/xlink" xmlns:svgjs="http://svgjs.dev/svgjs" viewBox="0 0 600 600" opacity="1"><path d="M165.3141326904297,279.5811462402344C169.50261433919272,252.35601552327475,161.1256586710612,221.8586400349935,183.37696838378906,211.2565460205078C205.62827809651694,200.65445200602213,252.61780548095703,215.3141326904297,298.8219909667969,215.9685821533203C345.0261764526367,216.62303161621094,427.8795674641927,197.38219451904297,460.6020812988281,215.18324279785156C493.32459513346356,232.98429107666016,501.7015736897786,290.05236053466797,495.1570739746094,322.7748718261719C488.6125742594401,355.4973831176758,434.6858673095703,380.6282602945964,421.3350830078125,411.518310546875C407.9842987060547,442.4083607991536,440.4450378417969,490.8376871744792,415.0523681640625,508.11517333984375C389.6596984863281,525.3926595052084,299.08377838134766,526.177988688151,268.97906494140625,515.1832275390625C238.87435150146484,504.18846638997394,252.87958526611328,465.575922648112,234.42408752441406,442.1466064453125C215.96858978271484,418.717290242513,169.764404296875,401.7015736897786,158.24607849121094,374.6073303222656C146.72775268554688,347.5130869547526,161.12565104166666,306.80627695719403,165.3141326904297,279.5811462402344C169.50261433919272,252.35601552327475,161.1256586710612,221.8586400349935,183.37696838378906,211.2565460205078" fill="hsl(340, 45%, 50%)" transform="matrix(1.1576250000000001,0,0,1.1576250000000001,-76.85987637519838,-122.4616389713288)"></path></svg>