<svg xmlns="http://www.w3.org/2000/svg" version="1.1" xmlns:xlink="http://www.w3.org/1999/xlink" viewBox="0 0 700 700" style="overflow: hidden; display: block;" width="700" height="700"><defs></defs><g id="two-0" transform="matrix(1 0 0 1 0 0)" opacity="1"><path transform="matrix(1 0 0 1 350 350)" id="two-304" d="M 295.141426 107.422694 C 288.435647 142.257563 248.006784 161.957237 223.003722 187.122341 C 199.28169 210.998113 175.684613 237.157372 147.831184 256.051121 C 119.133123 275.517806 85.371458 288.793425 53.207679 301.755747 C 16.838548 316.412869 -22.194102 350.07014 -59.723331 338.707836 C -99.73998 326.592445 -114.376254 273.585467 -138.062714 239.131634 C -155.947439 213.116885 -166.683096 181.074337 -187.079835 156.97862 C -207.576219 132.765188 -243.94666 121.909257 -260.366939 94.765815 C -276.957851 67.34031 -286.664428 31.662274 -281.672732 0 C -276.636044 -31.947661 -244.719743 -54.718726 -231.799017 -84.367943 C -219.67085 -112.198475 -222.894148 -147.577521 -205.663956 -172.57255 C -188.323564 -197.727442 -157.52545 -211.853498 -132.059485 -228.733737 C -105.662084 -246.231381 -77.401677 -262.8916 -48.724598 -276.330924 C -15.447163 -291.926174 19.978356 -324.357106 55.597195 -315.307364 C 92.638721 -305.896158 106.620712 -256.84677 131.580957 -227.904904 C 150.980209 -205.411111 165.617952 -176.335721 190.096225 -159.509674 C 226.33933 -134.596633 299.663125 -155.857643 315.679899 -114.898088 C 331.279922 -75.004287 258.038272 -42.746841 255.284431 -0.000001 C 252.853614 37.732661 302.288867 70.293504 295.141426 107.422694 Z " fill="#e92027" stroke="undefined" stroke-width="1" stroke-opacity="1" fill-opacity="1" visibility="visible" stroke-linecap="butt" stroke-linejoin="miter" stroke-miterlimit="4"></path></g></svg>