<svg xmlns="http://www.w3.org/2000/svg" version="1.1" xmlns:xlink="http://www.w3.org/1999/xlink" viewBox="0 0 700 700" style="overflow: hidden; display: block;" width="700" height="700"><defs></defs><g id="two-0" transform="matrix(1 0 0 1 0 0)" opacity="1"><path transform="matrix(1 0 0 1 350 350)" id="two-302" d="M 328.029542 119.392989 C 320.739767 159.563376 257.599656 163.623016 226.449454 190.013653 C 200.001655 212.420386 180.671128 244.18211 153.133641 265.235246 C 124.079116 287.448197 91.510306 309.321494 56.260871 319.071259 C 20.247423 329.032345 -21.732943 335.349264 -56.908738 322.74549 C -92.416683 310.022703 -109.68038 265.386478 -142.796022 247.329963 C -176.965414 228.698883 -227.209286 240.940152 -256.209328 214.985152 C -284.359769 189.790544 -290.199245 145.633213 -299.577183 109.037177 C -308.566758 73.956671 -323.488309 34.334113 -311.972101 0 C -299.75559 -36.421975 -254.227368 -53.201124 -231.735987 -84.345002 C -215.082425 -107.405235 -202.356579 -134.242794 -191.133589 -160.380124 C -176.26934 -194.997615 -182.678068 -243.005862 -155.147356 -268.723102 C -129.476373 -292.703115 -87.055868 -298.540423 -52.074199 -295.327456 C -17.185426 -292.123022 12.283424 -265.024464 44.172019 -250.511973 C 70.449032 -238.553312 98.562482 -228.411367 124.111298 -214.967075 C 150.249694 -201.212532 175.000589 -183.233827 200.396829 -168.152906 C 233.600854 -148.435529 290.902022 -146.898751 301.873414 -109.872938 C 313.447008 -70.814843 242.936646 -40.649497 245.601473 -0.000001 C 248.73341 47.774836 336.578293 72.284998 328.029542 119.392989 Z " fill="#e92027" stroke="undefined" stroke-width="1" stroke-opacity="1" fill-opacity="1" visibility="visible" stroke-linecap="butt" stroke-linejoin="miter" stroke-miterlimit="4"></path></g></svg>