<svg xmlns="http://www.w3.org/2000/svg" version="1.1" xmlns:xlink="http://www.w3.org/1999/xlink" viewBox="0 0 700 700" style="overflow: hidden; display: block;" width="700" height="700"><defs></defs><g id="two-0" transform="matrix(1 0 0 1 0 0)" opacity="1"><path transform="matrix(1 0 0 1 350 350)" id="two-448" d="M 249.833648 96.786071 C 231.188568 125.071518 233.438991 166.983507 209.923854 191.370879 C 186.410942 215.755943 146.409661 218.125112 116.863467 234.69348 C 85.90025 252.056461 59.408182 279.160024 27.26392 294.224563 C -10.555481 311.948779 -57.396852 350.515948 -94.014139 330.425422 C -139.009611 305.7381 -96.411677 212.805968 -136.559034 180.833385 C -173.671485 151.277743 -239.68864 198.248466 -280.137182 173.453599 C -315.626704 151.6986 -348.566945 105.392072 -343.066776 64.130294 C -336.394418 14.074848 -262.331259 -1.62766 -234.651671 -43.864 C -218.792902 -68.062927 -210.365145 -97.611152 -202.70948 -125.512396 C -192.320815 -163.374119 -212.376247 -216.37856 -183.440659 -242.91469 C -156.147486 -267.9446 -105.890995 -237.608126 -71.546454 -251.459702 C -30.771905 -267.904578 -12.240382 -329.314599 31.164328 -336.316666 C 71.080964 -342.756036 109.957265 -311.454723 145.368998 -291.940304 C 180.076033 -272.814224 218.84544 -252.757144 241.923547 -220.542454 C 264.691815 -188.760267 261.811479 -143.286483 277.974256 -107.687801 C 295.135914 -69.889077 347.615978 -41.254191 342.994528 -0.000001 C 338.059241 44.055715 274.231937 59.772741 249.833648 96.786071 Z " fill="#e92027" stroke="undefined" stroke-width="1" stroke-opacity="1" fill-opacity="1" visibility="visible" stroke-linecap="butt" stroke-linejoin="miter" stroke-miterlimit="4"></path></g></svg>