<svg width="200" height="200" viewBox="0 0 200 200" stroke="#201e1f" fill="none" stroke-width="2.5" stroke-linecap="round" stroke-linejoin="round"  xmlns="http://www.w3.org/2000/svg">
    <path fill="#e92027" stroke="none" transform="translate(-10,-10)" d="m42.417 136.25 109.112-65.445c-9.395 8.86-16.905 16.557-22.569 23.258-7.639 9.038-12.094 16.458-13.122 22.619-.523 3.134-.165 5.98 1.138 8.52 1.294 2.522 3.456 4.615 6.329 6.376 3.006 1.843 6.877 3.374 11.561 4.672H42.417Z"/><path d="m42.417 136.25 109.112-65.445c-9.395 8.86-16.905 16.557-22.569 23.258-7.639 9.038-12.094 16.458-13.122 22.619-.523 3.134-.165 5.98 1.138 8.52 1.294 2.522 3.456 4.615 6.329 6.376 3.006 1.843 6.877 3.374 11.561 4.672H42.417Z"/>
</svg>