<svg width="200" height="200" viewBox="0 0 200 200" stroke="#201e1f" fill="none" stroke-width="2.5" stroke-linecap="round" stroke-linejoin="round"  xmlns="http://www.w3.org/2000/svg">
    <path fill="#e92027" stroke="none" transform="translate(-10,-10)" d="M79 73v-1.5m0 0V62l7.5 9.5L95 57l3 20 19.5-12.5 1.5 17 32.5-8.5-14 19.5L160 91l-22.5 14.5 25 6-38 1.5 24 20.5L113 119l-26.5 23 13.5-30.5-38 20 15.5-45-37.5 19c15-9.833 29.873-23.685 25.5-26C57 75 49.667 70.333 38 69l41 2.5Z"/><path d="M79 73v-1.5m0 0V62l7.5 9.5L95 57l3 20 19.5-12.5 1.5 17 32.5-8.5-14 19.5L160 91l-22.5 14.5 25 6-38 1.5 24 20.5L113 119l-26.5 23 13.5-30.5-38 20 15.5-45-37.5 19c15-9.833 29.873-23.685 25.5-26C57 75 49.667 70.333 38 69l41 2.5Z"/>
</svg>