<svg width="200" height="200" viewBox="0 0 200 200" stroke="#201e1f" fill="none" stroke-width="2.5" stroke-linecap="round" stroke-linejoin="round"  xmlns="http://www.w3.org/2000/svg">
    <path fill="#e92027" stroke="none" transform="translate(-10,-10)" d="M143 143c-39.705-25.745-41.275-18.749-87 0 41.299-42.755-6.443-34.5 5.279-47C73 83.5 87.704 90.158 73 57c24.853 20.064 42.451 24.65 71.428 10.49-25.29 17.822-6.541 64.026-1.428 75.51Z"/><path d="M143 143c-39.705-25.745-41.275-18.749-87 0 41.299-42.755-6.443-34.5 5.279-47C73 83.5 87.704 90.158 73 57c24.853 20.064 42.451 24.65 71.428 10.49-25.29 17.822-6.541 64.026-1.428 75.51Z"/>
</svg>