<svg width="200" height="200" viewBox="0 0 200 200" stroke="#201e1f" fill="none" stroke-width="2.5" stroke-linecap="round" stroke-linejoin="round"  xmlns="http://www.w3.org/2000/svg">
    <path fill="#e92027" stroke="none" transform="translate(-10,-10)" d="M106.659 78.004c.044-6.722-1.182-15.61-3.545-26.784 6.744 8.43 12.635 14.242 18.86 17.886 6.901 4.041 14.092 5.352 23.048 4.828-4.449 10.43-6.245 18.657-5.973 26.647.236 6.926 2.025 13.578 4.833 21.213-8.326-6.925-15.23-11.769-20.924-14.536-6.642-3.226-12.106-3.84-16.226-.924-3.978 2.815-6.112 8.558-7.223 16.373-1 7.032-1.217 16.11-.938 27.107-6.522-7.45-12.236-13.027-18.665-16.975-6.886-4.23-14.5-6.538-24.647-7.421 3.637-8.14 5.672-15.212 5.767-23.139.09-7.531-1.572-15.728-5.112-26.241 10.343 6.94 18.975 12.102 25.982 15.239 3.92 1.755 7.396 2.906 10.42 3.36 3.026.454 5.71.227 7.942-.907 4.548-2.31 6.35-7.856 6.401-15.726Z"/><path d="M106.659 78.004c.044-6.722-1.182-15.61-3.545-26.784 6.744 8.43 12.635 14.242 18.86 17.886 6.901 4.041 14.092 5.352 23.048 4.828-4.449 10.43-6.245 18.657-5.973 26.647.236 6.926 2.025 13.578 4.833 21.213-8.326-6.925-15.23-11.769-20.924-14.536-6.642-3.226-12.106-3.84-16.226-.924-3.978 2.815-6.112 8.558-7.223 16.373-1 7.032-1.217 16.11-.938 27.107-6.522-7.45-12.236-13.027-18.665-16.975-6.886-4.23-14.5-6.538-24.647-7.421 3.637-8.14 5.672-15.212 5.767-23.139.09-7.531-1.572-15.728-5.112-26.241 10.343 6.94 18.975 12.102 25.982 15.239 3.92 1.755 7.396 2.906 10.42 3.36 3.026.454 5.71.227 7.942-.907 4.548-2.31 6.35-7.856 6.401-15.726Z"/>
</svg>