<svg width="200" height="200" viewBox="0 0 200 200" stroke="#201e1f" fill="none" stroke-width="2.5" stroke-linecap="round" stroke-linejoin="round"  xmlns="http://www.w3.org/2000/svg">
    <path fill="#e92027" stroke="none" transform="translate(-10,-10)" d="m67.5 106.538-.22-.476m0 0L52 73.038c19.667-8.167 57.6-18.2 52 7-5.6 25.2 22 24.833 36.5 21.5 8.833 7.167 18.1 23.6-15.5 32-33.6 8.4-52.48-14.818-57.72-27.476Z"/><path d="m67.5 106.538-.22-.476m0 0L52 73.038c19.667-8.167 57.6-18.2 52 7-5.6 25.2 22 24.833 36.5 21.5 8.833 7.167 18.1 23.6-15.5 32-33.6 8.4-52.48-14.818-57.72-27.476Z"/>
</svg>