<svg width="200" height="200" viewBox="0 0 200 200" stroke="#201e1f" fill="none" stroke-width="2.5" stroke-linecap="round" stroke-linejoin="round"  xmlns="http://www.w3.org/2000/svg">
    <path fill="#e92027" stroke="none" transform="translate(-10,-10)" d="M72.164 66.313c5.992-4.636 14.084-6.752 26.71-6.812 5.711 10.016 11.269 16.563 18.13 21.284 6.674 4.592 14.474 7.381 24.575 10.05l-15.882 48.88H73.8l-16.21-49.89c4.341-11.341 8.497-18.81 14.574-23.512Z"/><path d="M72.164 66.313c5.992-4.636 14.084-6.752 26.71-6.812 5.711 10.016 11.269 16.563 18.13 21.284 6.674 4.592 14.474 7.381 24.575 10.05l-15.882 48.88H73.8l-16.21-49.89c4.341-11.341 8.497-18.81 14.574-23.512Z"/>
</svg>