<svg width="200" height="200" viewBox="0 0 200 200" stroke="#201e1f" fill="none" stroke-width="2.5" stroke-linecap="round" stroke-linejoin="round"  xmlns="http://www.w3.org/2000/svg">
    <path fill="#e92027" stroke="none" transform="translate(-10,-10)" d="m107.003 80.598.468 2.072 1.796-1.134 24.956-15.76-15.759 24.957-1.134 1.796 2.072.468 28.79 6.503-28.79 6.503-2.072.468 1.134 1.796 15.759 24.956-24.956-15.759-1.796-1.134-.468 2.072-6.503 28.79-6.503-28.79-.468-2.072-1.796 1.134-24.956 15.759 15.759-24.956 1.134-1.796-2.072-.468-28.79-6.503 28.79-6.503 2.072-.468-1.134-1.796-15.76-24.956 24.957 15.759 1.796 1.134.468-2.072 6.503-28.79 6.503 28.79Z"/><path d="m107.003 80.598.468 2.072 1.796-1.134 24.956-15.76-15.759 24.957-1.134 1.796 2.072.468 28.79 6.503-28.79 6.503-2.072.468 1.134 1.796 15.759 24.956-24.956-15.759-1.796-1.134-.468 2.072-6.503 28.79-6.503-28.79-.468-2.072-1.796 1.134-24.956 15.759 15.759-24.956 1.134-1.796-2.072-.468-28.79-6.503 28.79-6.503 2.072-.468-1.134-1.796-15.76-24.956 24.957 15.759 1.796 1.134.468-2.072 6.503-28.79 6.503 28.79Z"/>
</svg>