<svg width="200" height="200" viewBox="0 0 200 200" stroke="#201e1f" fill="none" stroke-width="2.5" stroke-linecap="round" stroke-linejoin="round"  xmlns="http://www.w3.org/2000/svg">
    <path fill="#e92027" stroke="none" transform="translate(-10,-10)" d="m70.062 98.54-.352-.767m0 0L47.715 49.76l42.767 31.111L116.297 44l1.541 44.17L166 82.791l-46.621 29.191 24.274 38.792-43.924-32.647L63.897 155l14.641-36.872L35 120.433l34.71-22.66Z"/><path d="m70.062 98.54-.352-.767m0 0L47.715 49.76l42.767 31.111L116.297 44l1.541 44.17L166 82.791l-46.621 29.191 24.274 38.792-43.924-32.647L63.897 155l14.641-36.872L35 120.433l34.71-22.66Z"/>
</svg>