<svg width="200" height="200" viewBox="0 0 200 200" stroke="#201e1f" fill="none" stroke-width="2.5" stroke-linecap="round" stroke-linejoin="round"  xmlns="http://www.w3.org/2000/svg">
    <path fill="#e92027" stroke="none" transform="translate(-10,-10)" d="m65.5 67 4 12L50 68.5l13 21L41 84l24.5 17-20.5 4 30 6-15.5 13 29-8L78 136l21-14-2.5 20 10.5-15 7.5 15 14.5-15h26.5l-15-11 18-16.5-20-2 8-22.5-20 13 6.5-23.5L110.5 82l7.5-24-21.5 17L99 57 87 73.5l-9-14L75 75l-9.5-8Z"/>
    <path d="m65.5 67 4 12L50 68.5l13 21L41 84l24.5 17-20.5 4 30 6-15.5 13 29-8L78 136l21-14-2.5 20 10.5-15 7.5 15 14.5-15h26.5l-15-11 18-16.5-20-2 8-22.5-20 13 6.5-23.5L110.5 82l7.5-24-21.5 17L99 57 87 73.5l-9-14L75 75l-9.5-8Z"/>
</svg>