<svg width="200" height="200" viewBox="0 0 200 200" stroke="#201e1f" fill="none" stroke-width="2.5" stroke-linecap="round" stroke-linejoin="round"  xmlns="http://www.w3.org/2000/svg">
    <path fill="#e92027" stroke="none" transform="translate(-10,-10)" d="M77.5 46.097v11L40 42.597l47 31.5-50.5-10 37 24-47.5 15.5 51.5 5.5-42 22.5h36l-26.5 29.5 30-11.5 10 13.5 41.5-13.5-22.5-11 62.5-10.5-36.5-17.5 44.5-26c-11.833.667-35.4 1.6-35 0 .4-1.6 9.5-27.667 14-40.5l-31.5 32c-.667-12.333-2.2-37.4-3-39-.8-1.6-14 17-20.5 26.5l-2.5-26.5c-3.5 6.167-10.6 18.8-11 20-.5 1.5-7.5-10-7.5-11Z"/><path d="M77.5 46.097v11L40 42.597l47 31.5-50.5-10 37 24-47.5 15.5 51.5 5.5-42 22.5h36l-26.5 29.5 30-11.5 10 13.5 41.5-13.5-22.5-11 62.5-10.5-36.5-17.5 44.5-26c-11.833.667-35.4 1.6-35 0 .4-1.6 9.5-27.667 14-40.5l-31.5 32c-.667-12.333-2.2-37.4-3-39-.8-1.6-14 17-20.5 26.5l-2.5-26.5c-3.5 6.167-10.6 18.8-11 20-.5 1.5-7.5-10-7.5-11Z"/>
</svg>